<svg xmlns="http://www.w3.org/2000/svg" shape-rendering="geometricPrecision" text-rendering="geometricPrecision" image-rendering="optimizeQuality" fill-rule="evenodd" clip-rule="evenodd" viewBox="0 0 512 370.45"><path fill="white" fill-rule="nonzero" d="M78.88 31.88c-17.48 0-33.28 7.07-44.7 18.48l-.03.04C22.74 61.81 15.67 77.62 15.67 95.09s7.07 33.28 18.48 44.69l.03.03c11.42 11.42 27.22 18.48 44.7 18.48 17.47 0 33.28-7.06 44.69-18.48l.03-.03c11.42-11.41 18.48-27.22 18.48-44.69s-7.06-33.28-18.48-44.69l-.03-.04c-11.41-11.41-27.22-18.48-44.69-18.48zm148.1 137.34c-9.44 0-17.08 7.65-17.08 17.08 0 9.44 7.64 17.08 17.08 17.08 9.43 0 17.08-7.64 17.08-17.08 0-9.43-7.65-17.08-17.08-17.08zm266.84 164.71L269.46 191.79a7.812 7.812 0 0 1-2.42-10.8 7.777 7.777 0 0 1 2.52-2.49L493.82 36.43c-4.41-7.1-9.96-12.39-16.69-15.82-8.71-4.44-19.65-5.92-32.89-4.34-9.25 1.1-16.85 3.69-23.94 7.29-7.38 3.74-14.44 8.7-22.23 14.25L224.43 156.48a7.817 7.817 0 0 1-8.53.19l-58.82-31.94-17.87 24.17 38.18 30.29c3.38 2.68 3.94 7.61 1.26 10.98-.41.51-.86.95-1.35 1.33l-36.94 29.39 17.79 24.07 57.97-31.4a7.807 7.807 0 0 1 8.31.57l173.51 118.6c7.73 5.5 14.76 10.41 22.09 14.13 7.11 3.62 14.74 6.22 24.03 7.32 13.28 1.58 24.25.09 32.99-4.36 6.76-3.44 12.35-8.76 16.77-15.89zM288.28 185.18 508.36 324.6c3.28 2.09 4.58 6.35 2.88 9.95-6.35 13.46-15.35 23.26-27.08 29.23-11.54 5.87-25.49 7.91-41.94 5.95-11.29-1.35-20.57-4.51-29.23-8.91-8.32-4.22-15.87-9.49-24.13-15.38L219.35 229.6l-59.74 32.35c-.65.35-1.33.59-2.02.74a79.56 79.56 0 0 1 1.29 14.24c0 21.73-8.82 41.44-23.08 55.72l-.04.04c-14.31 14.29-34.02 23.12-55.76 23.12-21.73 0-41.43-8.82-55.72-23.08l-.03-.04C9.96 318.38 1.13 298.67 1.13 276.93c0-21.73 8.82-41.43 23.09-55.73l.04-.04c14.29-14.27 34-23.1 55.74-23.1 16.99 0 32.75 5.39 45.64 14.56l34.31-27.3-33.99-26.98c-13.16 9.82-29.46 15.63-47.08 15.63-21.73 0-41.44-8.83-55.72-23.09l-.04-.04C8.83 136.54 0 116.83 0 95.09c0-21.73 8.82-41.44 23.09-55.73l.05-.04c14.28-14.28 34-23.11 55.74-23.11 21.73 0 41.43 8.82 55.72 23.09l.03.03c14.29 14.31 23.12 34.02 23.12 55.76 0 4.08-.31 8.08-.91 11.99.59.16 1.17.39 1.73.69l60.97 33.11 169.6-115.9c8.26-5.88 15.8-11.15 24.11-15.38 8.64-4.39 17.9-7.54 29.16-8.88 16.39-1.95 30.31.07 41.82 5.93 11.59 5.9 20.5 15.54 26.82 28.76 1.95 3.59.81 8.12-2.69 10.34L288.28 185.18zM80 213.73c-17.47 0-33.28 7.06-44.69 18.48l-.03.03c-11.42 11.41-18.48 27.22-18.48 44.69 0 17.48 7.06 33.28 18.48 44.69l.03.04c11.41 11.41 27.22 18.48 44.69 18.48 17.48 0 33.28-7.07 44.69-18.48l.04-.04c11.41-11.41 18.48-27.21 18.48-44.69 0-17.47-7.07-33.28-18.48-44.69l-.04-.03c-11.41-11.42-27.21-18.48-44.69-18.48z"/></svg>